<?xml version="1.0" standalone="no"?> <!DOCTYPE svg PUBLIC "-//W3C//DTD SVG 1.0//EN" "http://www.w3.org/TR/2001/REC-SVG-20010904/DTD/svg10.dtd" > <svg xmlns="http://www.w3.org/2000/svg" width="100%" height="100%">
<defs >
<font id="thaisansliter1" horiz-adv-x="400" ><font-face
    font-family="Thai Sans Lite"
    units-per-em="1000"
    panose-1="2 0 0 0 0 0 0 0 0 0"
    ascent="850"
    descent="-250"
    alphabetic="0" />
<missing-glyph horiz-adv-x="375" d="M54 350H320V0H54V350Z" />
<glyph unicode=" " glyph-name="space" horiz-adv-x="322" />
<glyph unicode="!" glyph-name="exclam" horiz-adv-x="154" d="M45 56H101V0H45V56ZM45 525H101V105H45V525Z" />
<glyph unicode="&quot;" glyph-name="quotedbl" horiz-adv-x="270" d="M110 525V360H54V525H110ZM215 525V360H159V525H215Z" />
<glyph unicode="#" glyph-name="numbersign" horiz-adv-x="519" d="M78 350H155L193 490H251L213 350H353L391 490H449L411 350H497L484 301H398L370 196H456L442 147H357L318 0H260L299 147H159L120 0H62L101 147H25L38 196H113L141 301H66L78 350ZM172 196H312L340
301H200L172 196Z" />
<glyph unicode="$" glyph-name="dollar" horiz-adv-x="358" d="M307 387Q303 396 295 407T271 427T234 442T181 448Q163 448 146 443T116 429T94 407T86 379Q86 351 104 335T151 308T212 286T273 259T319 215T338 143Q338 116 332 91T310 45T265 11T193 -6V-84H136V-6Q83
-3 58 7T24 27V94Q39 77 72 60T166 42Q221 42 251 68T282 143Q282 177 263 196T215 227T153 249T91 273T43 312T24 379Q24 426 57 454T136 493V574H193V496Q244 494 270 483T307 460V387Z" />
<glyph unicode="%" glyph-name="percent" horiz-adv-x="568" d="M95 0L431 602H494L158 0H95ZM162 420Q162 476 151 494T123 513Q106 513 96 495T85 419Q85 390 88 373T96 347T108 334T123 331Q131 331 138 334T150 347T159 374T162 420ZM120 282Q80 282 54 315T27
417Q27 489 54 525T125 562Q167 562 192 528T218 423Q218 354 190 318T120 282ZM470 124Q470 180 459 198T431 217Q414 217 404 199T393 123Q393 94 396 77T404 51T416 38T431 35Q439 35 446 38T458 51T467 78T470 124ZM428 -14Q388 -14 362 19T335 121Q335 193
362 229T433 266Q475 266 500 232T526 127Q526 58 498 22T428 -14Z" />
<glyph unicode="&amp;" glyph-name="ampersand" horiz-adv-x="548" d="M522 0Q471 0 438 16T382 60Q315 -7 204 -7Q126 -7 82 24T38 127Q38 181 66 219T152 283Q130 297 113 323T95 388Q95 442 131 469T225 497Q249 497 271 490T311 471T338 440T348 398Q348 352
323 325T249 278Q301 250 332 215T386 145Q418 192 433 243T449 333V350H502Q501 321 495 289T479 224T453 160T418 102Q437 78 460 64T522 49V0ZM204 42Q293 42 349 99Q335 120 320 141T287 183T247 220T195 248Q172 238 153 228T121 205T101 173T94 127Q94 102
102 86T126 60T161 46T204 42ZM292 398Q292 410 285 419T268 434T246 443T225 446Q187 446 169 429T151 388Q151 361 164 339T204 302Q292 335 292 398Z" />
<glyph unicode="&apos;" glyph-name="quotesingle" horiz-adv-x="169" d="M110 525V360H54V525H110Z" />
<glyph unicode="(" glyph-name="parenleft" horiz-adv-x="219" d="M143 -141Q83 -74 53 6T23 187Q23 290 53 372T143 524H198Q79 378 79 187Q79 -1 198 -141H143Z" />
<glyph unicode=")" glyph-name="parenright" horiz-adv-x="219" d="M21 -141Q140 -1 140 187Q140 378 21 524H76Q136 454 166 372T196 187Q196 87 166 7T76 -141H21Z" />
<glyph unicode="*" glyph-name="asterisk" horiz-adv-x="269" d="M109 427L27 469L60 514L118 459L106 539H162L151 459L209 514L242 469L160 427L242 385L209 340L151 395L162 315H106L118 395L60 340L27 385L109 427Z" />
<glyph unicode="+" glyph-name="plus" horiz-adv-x="319" d="M188 364V245H310V189H188V63H132V189H9V245H132V364H188Z" />
<glyph unicode="," glyph-name="comma" horiz-adv-x="155" d="M70 56H126V0Q126 -13 119 -28T102 -57T80 -85T57 -109H15L42 -65Q53 -47 60 -29T70 0V56Z" />
<glyph unicode="-" glyph-name="hyphen" horiz-adv-x="305" d="M54 242H250V193H54V242Z" />
<glyph unicode="." glyph-name="period" horiz-adv-x="169" d="M54 56H110V0H54V56Z" />
<glyph unicode="/" glyph-name="slash" horiz-adv-x="230" d="M7 0L168 602H224L63 0H7Z" />
<glyph unicode="0" glyph-name="zero" horiz-adv-x="443" d="M348 241Q348 294 338 333T311 397T270 435T221 448Q195 448 173 436T133 397T106 332T96 238Q96 187 106 150T133 89T172 54T221 42Q247 42 270 54T310 90T338 152T348 241ZM404 246Q404 183 389 136T349
57T289 9T216 -7Q178 -7 146 8T90 53T53 128T40 235Q40 300 53 349T92 431T150 480T225 497Q264 497 297 482T353 436T390 358T404 246Z" />
<glyph unicode="1" glyph-name="one" horiz-adv-x="221" d="M165 0H111V410Q103 405 91 398T65 384T34 370T1 361V410Q38 424 66 448T111 490H165V0Z" />
<glyph unicode="2" glyph-name="two" horiz-adv-x="372" d="M272 364Q272 410 248 432T185 455Q153 455 119 438T62 397V457Q83 479 114 491T185 504Q248 504 288 469T329 370Q329 333 313 302T273 244T220 192T166 144T122 97T101 49H347V0H44V46Q44 75 61 102T103
154T158 205T213 255T255 308T272 364Z" />
<glyph unicode="3" glyph-name="three" horiz-adv-x="360" d="M324 134Q324 65 278 29T154 -7Q118 -7 90 -4T41 11V73Q65 53 92 48T154 42Q202 42 234 62T267 129Q267 153 258 171T228 202T173 221T88 228V275Q113 276 141 280T194 295T235 322T251 367Q251 412
228 430T171 448Q144 448 112 443T57 421V475Q81 490 108 493T171 497Q200 497 224 489T267 465T295 428T305 383Q305 283 209 253Q232 249 253 240T289 215T314 180T324 134Z" />
<glyph unicode="4" glyph-name="four" horiz-adv-x="377" d="M235 168V405L69 168H235ZM287 490V168H351V119H287V0H235V119H6V168L232 490H287Z" />
<glyph unicode="5" glyph-name="five" horiz-adv-x="348" d="M322 146Q322 71 274 32T145 -7Q111 -7 87 -6T47 4V64Q73 48 95 45T145 41Q202 41 232 66T263 142Q263 193 231 221T146 250Q123 250 106 249T77 246L54 243V490H286V441H110V293L121 294Q127 295 133
295T146 295Q231 295 276 255T322 146Z" />
<glyph unicode="6" glyph-name="six" horiz-adv-x="388" d="M297 143Q297 197 270 228T195 259Q153 259 125 230T97 157Q97 103 124 73T200 42Q242 42 269 67T297 143ZM354 153Q354 114 342 85T308 35T257 4T195 -7Q38 -7 38 214Q38 277 52 329T92 419T155 476T239
497Q260 497 277 496T305 492L323 487V437Q314 440 296 444T239 448Q205 448 179 434T134 392T105 328T95 244Q129 308 209 308Q241 308 268 296T314 263T343 214T354 153Z" />
<glyph unicode="7" glyph-name="seven" horiz-adv-x="341" d="M326 456L146 0H90L258 441H15V490H326V456Z" />
<glyph unicode="8" glyph-name="eight" horiz-adv-x="393" d="M117 368Q117 335 138 311T197 287Q213 287 227 293T253 311T271 336T278 368Q278 385 272 400T254 425T228 442T197 448Q158 448 138 426T117 368ZM197 238Q155 238 128 210T101 136Q101 85 126 64T197
42Q241 42 270 64T300 136Q300 155 293 173T272 206T239 229T197 238ZM60 374Q60 400 70 422T98 461T141 487T197 497Q225 497 250 487T294 461T324 422T335 374Q335 340 316 311T265 264Q310 244 333 209T357 131Q357 98 345 73T311 30T260 3T197 -7Q125 -7 81
29T37 131Q37 174 60 208T126 264Q95 281 78 310T60 374Z" />
<glyph unicode="9" glyph-name="nine" horiz-adv-x="384" d="M286 328Q286 385 262 420T190 455Q170 455 152 446T121 420T99 383T91 338Q91 286 116 259T190 231Q215 231 233 241T263 266T280 297T286 328ZM346 274Q346 126 291 60T136 -7Q116 -7 96 -6T60 3V56Q73
50 94 46T147 42Q216 42 253 90T290 232Q281 216 268 207T240 192T210 184T183 182Q151 182 124 193T77 225T46 274T34 338Q34 372 45 402T76 455T126 491T190 504Q226 504 255 488T304 442T335 370T346 274Z" />
<glyph unicode=":" glyph-name="colon" horiz-adv-x="118" d="M54 350H110V294H54V350ZM54 56H110V0H54V56Z" />
<glyph unicode=";" glyph-name="semicolon" horiz-adv-x="141" d="M60 350H116V294H60V350ZM60 56H116V0Q116 -13 109 -28T92 -57T70 -85T47 -109H5L32 -65Q43 -47 50 -29T60 0V56Z" />
<glyph unicode="&lt;" glyph-name="less" horiz-adv-x="388" d="M334 -14L2 152V178L334 364V308L82 165L334 42V-14Z" />
<glyph unicode="=" glyph-name="equal" horiz-adv-x="379" d="M54 276H355V228H54V276ZM54 172H355V123H54V172Z" />
<glyph unicode="&gt;" glyph-name="greater" horiz-adv-x="388" d="M54 42L306 165L54 308V364L386 178V152L54 -14V42Z" />
<glyph unicode="?" glyph-name="question" horiz-adv-x="271" d="M83 105V216Q83 245 102 264T144 300T186 336T205 384Q205 419 183 433T131 448Q97 448 69 441T20 408V470Q45 486 72 491T131 497Q155 497 178 491T220 471T249 438T260 390Q260 351 241 327T200
286T158 253T139 216V105H83ZM83 56H139V0H83V56Z" />
<glyph unicode="@" glyph-name="at" horiz-adv-x="636" d="M319 295Q279 295 251 267T222 184Q222 137 240 117T281 97Q323 97 346 130T369 238Q369 263 356 279T319 295ZM382 127Q364 85 342 67T281 48Q258 48 238 56T201 80T176 123T166 184Q166 217 178 246T212
297T260 331T319 344Q347 344 365 331T392 300L400 340H456L428 176Q428 163 430 149T435 124T445 105T461 97Q483 97 499 110T526 143T542 185T547 226Q547 255 533 289T492 352T425 401T330 421Q276 421 232 399T158 342T110 266T93 187Q93 147 107 109T150 40T221
-8T319 -27Q358 -27 395 -20T463 0V-53Q396 -76 319 -76Q259 -76 208 -57T118 -3T59 80T37 187Q37 246 60 297T124 387T217 448T330 470Q388 470 438 452T524 401T582 323T603 226Q603 185 592 153T561 97T515 61T461 48Q421 48 403 66T382 127Z" />
<glyph unicode="A" glyph-name="A" horiz-adv-x="447" d="M433 0H377L327 135H120L70 0H14L194 490H253L433 0ZM307 184L221 426L134 184H307Z" />
<glyph unicode="B" glyph-name="B" horiz-adv-x="385" d="M110 230V49H186Q237 49 267 75T297 139Q297 230 175 230H110ZM110 441V276H169Q215 276 243 300T272 365Q272 400 248 420T175 441H110ZM54 0V490H190Q257 490 293 458T330 375Q330 336 306 304T244 259Q292
251 323 221T355 139Q355 108 343 83T310 39T258 10T192 0H54Z" />
<glyph unicode="C" glyph-name="C" horiz-adv-x="447" d="M402 19Q372 1 338 -3T264 -7Q210 -7 167 10T93 58T46 135T29 237Q29 300 48 348T103 430T187 480T293 497Q326 497 352 495T402 482V422Q372 436 342 442T281 448Q239 448 203 433T141 390T100 323T85
237Q85 143 135 93T270 42Q308 42 340 50T402 73V19Z" />
<glyph unicode="D" glyph-name="D" horiz-adv-x="475" d="M110 441V49H181Q277 49 332 102T388 249Q388 441 184 441H110ZM54 0V490H187Q445 490 445 249Q445 193 427 147T374 69T290 18T181 0H54Z" />
<glyph unicode="E" glyph-name="E" horiz-adv-x="326" d="M313 0H54V490H313V441H110V269H292V221H110V49H313V0Z" />
<glyph unicode="F" glyph-name="F" horiz-adv-x="313" d="M110 0H54V490H313V441H110V269H292V221H110V0Z" />
<glyph unicode="G" glyph-name="G" horiz-adv-x="485" d="M436 26Q398 4 357 -1T268 -7Q215 -7 171 9T96 57T48 134T31 235Q31 293 50 341T103 424T184 478T288 497Q328 497 362 494T426 475V412Q395 432 359 440T282 448Q239 448 203 433T142 389T102 321T87
235Q87 139 137 91T275 42Q307 42 332 46T379 62V203H268V252H436V26Z" />
<glyph unicode="H" glyph-name="H" horiz-adv-x="477" d="M422 0H366V228H110V0H54V490H110V276H366V490H422V0Z" />
<glyph unicode="I" glyph-name="I" horiz-adv-x="171" d="M54 490H110V0H54V490Z" />
<glyph unicode="J" glyph-name="J" horiz-adv-x="230" d="M184 172Q184 81 147 34T46 -14Q30 -14 19 -12T0 -7V48Q10 40 21 38T46 35Q86 35 107 70T128 172V490H184V172Z" />
<glyph unicode="K" glyph-name="K" horiz-adv-x="428" d="M333 0L207 274L110 153V0H54V490H110V242L309 490H379L246 323L395 0H333Z" />
<glyph unicode="L" glyph-name="L" horiz-adv-x="308" d="M308 0H54V490H109V49H308V0Z" />
<glyph unicode="M" glyph-name="M" horiz-adv-x="605" d="M550 0H496V405L314 0H287L109 403Q111 400 111 395V390V0H54V490H129L302 93L480 490H550V0Z" />
<glyph unicode="N" glyph-name="N" horiz-adv-x="498" d="M444 0H374L110 407V0H54V490H125L388 78V490H444V0Z" />
<glyph unicode="O" glyph-name="O" horiz-adv-x="541" d="M265 -7Q214 -7 172 10T99 58T53 135T36 238Q36 361 99 429T275 497Q327 497 369 480T442 430T489 352T506 249Q506 124 442 59T265 -7ZM265 42Q353 42 401 97T450 249Q450 293 438 329T402 392T347 433T275
448Q188 448 140 391T92 238Q92 194 104 158T139 96T194 56T265 42Z" />
<glyph unicode="P" glyph-name="P" horiz-adv-x="354" d="M111 441V233H172Q232 233 263 262T295 340Q295 389 271 415T186 441H111ZM111 184V0H54V490H186Q265 490 308 453T351 340Q351 268 304 226T172 184H111Z" />
<glyph unicode="Q" glyph-name="Q" horiz-adv-x="529" d="M253 -7Q201 -7 159 10T86 58T40 135T23 238Q23 299 39 348T87 431T162 485T262 504Q314 504 357 486T430 434T477 353T494 249Q494 167 465 110T380 22Q393 18 407 11T433 -7T453 -34T461 -70H405Q405
-55 395 -43T371 -21T344 -7T323 1Q306 -3 289 -5T253 -7ZM253 42Q295 42 329 56T388 98T425 163T438 249Q438 293 426 331T390 396T334 439T262 455Q220 455 186 439T128 394T92 326T79 238Q79 194 91 158T126 96T181 56T253 42Z" />
<glyph unicode="R" glyph-name="R" horiz-adv-x="424" d="M109 441V260H188Q230 260 261 284T292 356Q292 394 264 417T188 441H109ZM404 0H336L251 136Q229 171 209 189T156 207H109V0H53V490H200Q230 490 256 482T303 456T336 414T348 356Q348 305 317 271T237
226Q260 220 277 197T311 146L404 0Z" />
<glyph unicode="S" glyph-name="S" horiz-adv-x="388" d="M324 408Q313 421 282 434T197 448Q180 448 164 443T134 429T112 407T103 379Q103 351 121 335T168 308T229 286T290 259T336 215T355 143Q355 114 348 87T322 39T269 6T183 -7Q149 -7 125 -4T85 4T58
15T41 27V94Q54 77 88 60T183 42Q238 42 268 68T299 143Q299 177 280 196T232 227T170 249T108 273T60 312T41 379Q41 408 54 430T89 467T139 489T197 497Q255 497 284 489T324 474V408Z" />
<glyph unicode="T" glyph-name="T" horiz-adv-x="348" d="M342 441H202V0H146V441H6V490H342V441Z" />
<glyph unicode="U" glyph-name="U" horiz-adv-x="461" d="M414 193Q414 90 367 42T226 -7Q135 -7 92 38T48 186V490H104V190Q104 112 132 77T226 42Q290 42 323 75T357 184V490H414V193Z" />
<glyph unicode="V" glyph-name="V" horiz-adv-x="445" d="M376 490H432L253 0H193L13 490H69L221 64L376 490Z" />
<glyph unicode="W" glyph-name="W" horiz-adv-x="680" d="M651 490L512 0H452L340 391L232 0H169L29 490H85L201 67L322 490H364L480 74L595 490H651Z" />
<glyph unicode="X" glyph-name="X" horiz-adv-x="468" d="M430 0H358L235 206L104 0H36L197 244L48 490H116L235 281L358 490H427L272 244L430 0Z" />
<glyph unicode="Y" glyph-name="Y" horiz-adv-x="395" d="M385 490L224 179V0H168V176L10 490H72L195 239L327 490H385Z" />
<glyph unicode="Z" glyph-name="Z" horiz-adv-x="415" d="M391 475L104 49H386V0H22V15L305 441H43V490H391V475Z" />
<glyph unicode="[" glyph-name="bracketleft" horiz-adv-x="218" d="M54 525H206V476H108V-92H206V-141H54V525Z" />
<glyph unicode="\" glyph-name="backslash" horiz-adv-x="230" d="M167 0L6 602H62L223 0H167Z" />
<glyph unicode="]" glyph-name="bracketright" horiz-adv-x="219" d="M163 -141H11V-92H109V476H11V525H163V-141Z" />
<glyph unicode="^" glyph-name="asciicircum" horiz-adv-x="417" d="M21 193L187 525H213L399 193H343L200 445L77 193H21Z" />
<glyph unicode="_" glyph-name="underscore" horiz-adv-x="410" d="M54 0H355V-49H54V0Z" />
<glyph unicode="`" glyph-name="grave" horiz-adv-x="159" d="M143 441H97L9 553H65L143 441Z" />
<glyph unicode="a" glyph-name="a" horiz-adv-x="368" d="M45 303Q62 323 92 340T168 357Q194 357 221 350T271 328T307 288T321 230V0H265V32Q251 15 228 4T168 -7Q144 -7 122 -2T82 15T54 45T43 89Q46 124 64 144T106 174T159 187T210 195T249 206T265 230Q265
268 239 288T168 308Q128 308 101 290T58 248L45 303ZM174 42Q208 42 230 55T265 85V165Q255 158 236 152T185 145Q173 145 158 142T130 133T108 115T99 89Q99 72 107 63T126 49T151 43T174 42Z" />
<glyph unicode="b" glyph-name="b" horiz-adv-x="382" d="M110 162Q110 140 117 119T139 80T171 53T213 42Q264 42 292 76T321 186Q321 246 301 277T232 308Q208 308 186 298T147 270T120 228T110 177V162ZM110 0H53V525H110V293Q132 329 162 343T232 357Q301
357 339 314T377 186Q377 142 366 107T333 46T282 7T213 -7Q177 -7 152 6T110 48V0Z" />
<glyph unicode="c" glyph-name="c" horiz-adv-x="354" d="M302 11Q282 -2 260 -4T211 -7Q128 -7 79 36T29 169Q29 212 43 247T81 306T139 344T213 357Q232 357 248 356T276 352L302 348V290Q280 300 258 304T213 308Q85 308 85 169Q85 102 114 72T205 42Q233 42
256 47T302 63V11Z" />
<glyph unicode="d" glyph-name="d" horiz-adv-x="384" d="M273 177Q273 204 263 229T236 273T197 303T151 315Q103 315 83 281T62 186Q62 111 90 77T170 42Q192 42 211 52T244 80T265 118T273 162V177ZM273 48Q256 19 231 6T170 -7Q132 -7 102 7T50 46T18 106T6
186Q6 268 45 316T151 364Q229 364 273 293V525H330V0H273V48Z" />
<glyph unicode="e" glyph-name="e" horiz-adv-x="378" d="M288 207Q286 258 262 283T196 308Q154 308 126 282T91 207H288ZM345 158H91Q91 95 123 69T207 42Q252 42 277 53T319 77V28Q303 16 278 5T207 -7Q169 -7 138 3T83 36T47 92T34 174Q34 214 46 248T80 306T131
343T196 357Q266 357 305 316T345 189V158Z" />
<glyph unicode="f" glyph-name="f" horiz-adv-x="248" d="M237 301H134V-7H76V301H5V350H76V397Q76 457 100 491T176 525Q213 525 237 514V457Q230 466 220 469T195 472Q162 472 148 456T134 397V350H237V301Z" />
<glyph unicode="g" glyph-name="g" horiz-adv-x="412" d="M309 189Q303 207 295 228T273 266T241 296T197 308Q170 308 150 296T115 264T93 219T85 168Q85 142 92 119T114 79T149 52T197 42Q223 42 241 51T273 75T294 107T309 140V189ZM73 -113Q101 -126 126 -133T173
-141Q309 -141 309 1V44Q297 27 286 17T262 1T234 -5T197 -7Q162 -7 132 5T79 41T43 96T29 168Q29 216 42 251T78 310T131 345T197 357Q239 357 264 344T309 299V350H365V11Q365 -92 319 -140T173 -189Q109 -189 60 -169L73 -113Z" />
<glyph unicode="h" glyph-name="h" horiz-adv-x="391" d="M298 0V236Q298 272 272 293T207 315Q188 315 171 306T140 279T118 235T110 175V0H53V525H110V304Q114 318 124 329T147 348T176 360T207 364Q279 364 316 327T354 233V0H298Z" />
<glyph unicode="i" glyph-name="i" horiz-adv-x="156" d="M47 350H103V0H47V350ZM47 462H103V406H47V462Z" />
<glyph unicode="j" glyph-name="j" horiz-adv-x="143" d="M-43 -125Q-40 -126 -34 -126Q6 -126 27 -98T48 -6V350H104V6Q104 -85 68 -130T-34 -175Q-39 -175 -44 -175T-54 -173H-56L-43 -125ZM48 462H104V406H48V462Z" />
<glyph unicode="k" glyph-name="k" horiz-adv-x="351" d="M333 350L241 235L349 0H288L202 186L109 70V0H53V525H109V158L262 350H333Z" />
<glyph unicode="l" glyph-name="l" horiz-adv-x="169" d="M53 525H109V0H53V525Z" />
<glyph unicode="m" glyph-name="m" horiz-adv-x="650" d="M543 0V236Q543 272 517 290T452 308Q433 308 416 300T385 276T363 234T355 175V0H298V236Q298 272 272 290T207 308Q188 308 171 300T140 276T118 234T110 175V0H53V350H110V304Q114 318 124 328T147
344T176 354T207 357Q306 357 338 297Q354 325 380 341T452 357Q525 357 562 323T599 233V0H543Z" />
<glyph unicode="n" glyph-name="n" horiz-adv-x="403" d="M298 0V236Q298 272 272 290T207 308Q188 308 171 300T140 276T118 234T110 175V0H53V350H110V304Q114 318 124 328T147 344T176 354T207 357Q280 357 317 323T354 233V0H298Z" />
<glyph unicode="o" glyph-name="o" horiz-adv-x="412" d="M202 -7Q127 -7 81 39T35 170Q35 261 80 309T210 357Q247 357 278 345T331 309T366 252T378 178Q378 84 333 39T202 -7ZM202 42Q259 42 290 78T322 178Q322 236 292 272T210 308Q156 308 124 271T91 170Q91
112 121 77T202 42Z" />
<glyph unicode="p" glyph-name="p" horiz-adv-x="382" d="M110 173Q110 146 120 122T147 80T186 52T232 42Q280 42 300 73T321 164Q321 239 293 273T213 308Q190 308 172 298T139 270T118 232T110 188V173ZM110 302Q127 331 152 344T213 357Q251 357 281 343T333
304T365 243T377 164Q377 79 339 36T232 -7Q192 -7 162 7T110 57V-175H53V350H110V302Z" />
<glyph unicode="q" glyph-name="q" horiz-adv-x="384" d="M272 188Q272 210 265 231T243 270T210 297T169 308Q118 308 90 274T62 164Q62 104 82 73T151 42Q174 42 196 52T235 80T262 122T272 173V188ZM272 350H329V-175H272V57Q251 21 221 7T151 -7Q82 -7 44
36T6 164Q6 251 49 304T169 357Q205 357 230 344T272 302V350Z" />
<glyph unicode="r" glyph-name="r" horiz-adv-x="238" d="M236 292Q230 297 222 302T202 308Q184 308 167 291T137 249T117 192T109 132V0H53V350H109V265Q121 303 146 330T202 357Q218 357 229 354L236 350V292Z" />
<glyph unicode="s" glyph-name="s" horiz-adv-x="305" d="M249 282Q238 290 217 299T155 308Q130 308 114 301T97 272Q97 251 110 241T142 223T183 210T225 191T257 158T270 99Q270 78 265 59T246 26T208 2T145 -7Q95 -7 73 0T41 15V79Q51 66 75 54T145 42Q187
42 204 54T221 99Q221 125 208 139T174 161T131 176T88 193T55 222T41 272Q41 293 51 309T77 335T113 351T155 357Q198 357 218 353T249 343V282Z" />
<glyph unicode="t" glyph-name="t" horiz-adv-x="249" d="M5 350H76V525H134V350H237V301H134V121Q134 78 148 62T195 46Q225 46 237 61V4Q213 -7 176 -7Q124 -7 100 27T76 121V301H5V350Z" />
<glyph unicode="u" glyph-name="u" horiz-adv-x="403" d="M104 350V114Q104 78 130 60T195 42Q214 42 231 50T262 74T284 116T292 175V350H349V0H292V46Q288 32 278 22T254 6T225 -4T195 -7Q122 -7 85 27T48 117V350H104Z" />
<glyph unicode="v" glyph-name="v" horiz-adv-x="354" d="M340 350L201 0H146L15 350H74L175 57L281 350H340Z" />
<glyph unicode="w" glyph-name="w" horiz-adv-x="545" d="M516 350L410 0H352L274 269L188 0H132L30 350H86L166 65L253 350H302L384 60L461 350H516Z" />
<glyph unicode="x" glyph-name="x" horiz-adv-x="376" d="M336 350L218 170L336 0H272L186 139L101 0H39L156 170L42 350H107L190 200L274 350H336Z" />
<glyph unicode="y" glyph-name="y" horiz-adv-x="373" d="M60 -132Q61 -133 67 -133Q96 -133 112 -125T141 -83L170 -8L33 350H96L200 48L310 350H370L206 -71Q162 -182 81 -182Q70 -182 63 -182T48 -179L60 -132Z" />
<glyph unicode="z" glyph-name="z" horiz-adv-x="365" d="M323 331L118 49H321V0H36V16L238 301H55V350H323V331Z" />
<glyph unicode="{" glyph-name="braceleft" horiz-adv-x="221" d="M190 -175Q71 -175 71 -53V67Q71 148 9 154V197Q39 200 55 219T71 281V398Q71 462 99 492T190 525V476Q160 474 144 454T127 396V276Q127 236 112 210T62 173Q96 165 111 139T127 70V-46Q127 -89
140 -107T190 -126V-175Z" />
<glyph unicode="|" glyph-name="bar" horiz-adv-x="169" d="M54 524H110V-176H54V524Z" />
<glyph unicode="}" glyph-name="braceright" horiz-adv-x="221" d="M32 -126Q67 -126 80 -108T94 -46V70Q94 112 109 138T159 173Q125 183 110 209T94 276V396Q94 471 32 476V525Q93 522 121 492T150 398V281Q150 239 166 220T212 197V154Q150 148 150 67V-53Q150
-175 32 -175V-126Z" />
<glyph unicode="~" glyph-name="asciitilde" horiz-adv-x="389" d="M344 259Q340 165 259 165Q239 165 222 173T190 191T159 209T129 217Q86 217 86 165H45Q45 207 67 233T129 259Q148 259 164 251T195 233T227 215T263 206Q279 206 290 220T302 259H344Z" />
</font>
</defs>
</svg>
